<?xml version="1.0" encoding="UTF-8"?>
<svg width="256px" height="256px" viewBox="0 0 256 256" version="1.1"
      xmlns="http://www.w3.org/2000/svg"
      xmlns:xlink="http://www.w3.org/1999/xlink" preserveAspectRatio="xMidYMid">
      <g>
            <path d="M128,0 C57.3075981,0 0,57.307374 0,128 C0,198.69285 57.3078221,256 128,256 C198.69285,256 256,198.692626 256,128 C256,57.307374 198.69285,0 128,0 Z M67.6740046,214.889336 L37.4391588,98.1528643 L158.560955,98.1528643 L128.325876,214.889336 L67.6740046,214.889336 Z" fill="#E44D26"></path>
            <path d="M128,232.382899 L76.7786109,214.88925 L52.7789598,119.246407 L203.221157,119.246407 L179.221498,214.889336 L128,232.382899 Z M128,157.287121 L95.1233508,148.600799 L92.5817704,130.059238 L163.418406,130.059238 L160.876825,148.600799 L128,157.287121 Z" fill="#F16529"></path>
            <path d="M128,98.1528643 L128,119.246407 L173.569381,119.246407 L170.302268,148.600799 L128,157.286039 L128,179.797572 L170.231743,166.471108 L184.903055,98.1528643 L128,98.1528643 Z M128,68.1239154 L128,89.2174585 L207.361532,89.2174585 L211.042876,63.3538652 L219.823648,32.0793243 L128,32.0793243 L128,68.1239154 Z" fill="#EBEBEB"></path>
            <path d="M128,98.1528643 L128,119.246407 L82.4302127,119.246407 L79.1630867,148.600799 L128,157.286039 L128,179.797572 L85.7678573,166.471108 L71.096546,98.1528643 L128,98.1528643 Z M128,68.1239154 L128,89.2174585 L48.6380841,89.2174585 L52.3197336,63.3538652 L61.1008251,32.0793243 L128,32.0793243 L128,68.1239154 Z" fill="#FFFFFF"></path>
      </g>
</svg>
