<?xml version="1.0" encoding="UTF-8"?>
<svg width="256px" height="289px" viewBox="0 0 256 289" version="1.1"
      xmlns="http://www.w3.org/2000/svg"
      xmlns:xlink="http://www.w3.org/1999/xlink" preserveAspectRatio="xMidYMid">
      <g>
            <path d="M127.999999,288.463771 L0,288.463771 L0,0 L127.999999,0 L255.999998,0 L255.999998,288.463771 L127.999999,288.463771 Z" fill="#3A416F"></path>
            <path d="M127.999,94.1107 L128,189.9887 L212.182,189.9887 L203.68,210.9247 L127.999,210.9247 L127.999,232.5197 L177.012,232.5197 C188.02,232.5197 198.031,226.6867 201.536,215.2287 L216.540,147.6747 L128,147.6747 L128,126.0787 L221.551,126.0787 C232.558,126.0787 241.573,137.5367 239.066,148.9947 L226.557,215.2277 C222.056,235.7947 203.534,253.3917 177.012,253.3917 L99.034,253.3917 C70.517,253.3917 42.009,231.3787 37.501,211.7437 L0,94.1107 L127.999,94.1107 Z" fill="#FFFFFF"></path>
      </g>
</svg>
